<svg xmlns="http://www.w3.org/2000/svg" width="1024" height="1024" viewBox="0 0 1024 1024"><rect width="1024" height="1024" fill="white" /><path d="M 353.6789329036686 136.8658195313783 A 348.16 348.16 0 0 1 608.8810670963313 136.8658195313783 L 506.4471994376854 396.90934210775595 A 68.6688 68.6688 0 0 0 456.11280056231453 396.90934210775595 Z" fill="#EF4444" /><path d="M 620.1084758370137 141.5163645020752 A 348.16 348.16 0 0 1 800.5636354979248 321.97152416298627 L 544.2534148359372 433.41837993578605 A 68.6688 68.6688 0 0 0 508.66162006421393 397.8265851640628 Z" fill="#F97316" /><path d="M 805.2141804686216 333.19893290366866 A 348.16 348.16 0 0 1 805.2141804686216 588.4010670963313 L 545.170657892244 485.96719943768545 A 68.6688 68.6688 0 0 0 545.170657892244 435.63280056231457 Z" fill="#EAB308" /><path d="M 800.5636354979248 599.6284758370138 A 348.16 348.16 0 0 1 620.1084758370137 780.0836354979249 L 508.66162006421393 523.7734148359373 A 68.6688 68.6688 0 0 0 544.2534148359372 488.181620064214 Z" fill="#22C55E" /><path d="M 608.8810670963313 784.7341804686217 A 348.16 348.16 0 0 1 353.6789329036686 784.7341804686217 L 456.11280056231453 524.6906578922441 A 68.6688 68.6688 0 0 0 506.4471994376854 524.6906578922441 Z" fill="#06B6D4" /><path d="M 342.4515241629863 780.0836354979249 A 348.16 348.16 0 0 1 161.9963645020752 599.6284758370139 L 418.30658516406277 488.181620064214 A 68.6688 68.6688 0 0 0 453.898379935786 523.7734148359373 Z" fill="#3B82F6" /><path d="M 157.34581953137825 588.4010670963313 A 348.16 348.16 0 0 1 157.34581953137825 333.1989329036688 L 417.3893421077559 435.6328005623146 A 68.6688 68.6688 0 0 0 417.3893421077559 485.96719943768545 Z" fill="#8B5CF6" /><path d="M 161.99636450207515 321.97152416298627 A 348.16 348.16 0 0 1 342.4515241629864 141.51636450207513 L 453.89837993578607 397.8265851640628 A 68.6688 68.6688 0 0 0 418.30658516406277 433.41837993578605 Z" fill="#EC4899" /><circle cx="481.28" cy="460.8" r="62.668800000000005" fill="white" /><defs>  <linearGradient id="ribbon1" x1="0" y1="1" x2="1" y2="0">    <stop offset="0%" stop-color="#1E3A5F" />    <stop offset="30%" stop-color="#0891B2" />    <stop offset="60%" stop-color="#34D399" />    <stop offset="100%" stop-color="#FBBF24" />  </linearGradient>  <linearGradient id="ribbon2" x1="0" y1="1" x2="1" y2="0">    <stop offset="0%" stop-color="#164E63" />    <stop offset="40%" stop-color="#0E7490" />    <stop offset="100%" stop-color="#06B6D4" />  </linearGradient></defs><path d="M 446.46399999999994 826.368 C 620.544 861.184, 777.216 704.512, 881.664 495.616" fill="none" stroke="url(#ribbon1)" stroke-width="16" stroke-linecap="round" /><path d="M 394.23999999999995 854.2208 C 568.3199999999999 896, 742.4 756.7360000000001, 864.256 565.248 " fill="none" stroke="url(#ribbon2)" stroke-width="9" stroke-linecap="round" opacity="0.5" /></svg>