<svg xmlns="http://www.w3.org/2000/svg" width="1024" height="1024" viewBox="0 0 1024 1024"><rect width="1024" height="1024" fill="white"/><defs><linearGradient id="r1" x1="0.1" y1="0.9" x2="0.95" y2="0.15"><stop offset="0%" stop-color="#1E3A5F"/><stop offset="30%" stop-color="#0891B2"/><stop offset="65%" stop-color="#34D399"/><stop offset="100%" stop-color="#FBBF24"/></linearGradient></defs><path d="M341.23717530824877 124.99163025816671 A327.68 327.68 0 0 1 580.3628246917513 124.99163025816671 L482.5851873349482 374.4907538804382 A59.705600000000004 59.705600000000004 0 0 0 439.0148126650518 374.4907538804382 Z" fill="#EF4444"/><path d="M591.9863709882434 129.80626077704528 A327.68 327.68 0 0 1 761.0737392229547 298.89362901175673 L515.5119865861512 406.176920801771 A59.705600000000004 59.705600000000004 0 0 0 484.703079198229 375.36801341384876 Z" fill="#F97316"/><path d="M765.8883697418332 310.51717530824874 A327.68 327.68 0 0 1 765.8883697418332 549.6428246917512 L516.3892461195618 451.8651873349482 A59.705600000000004 59.705600000000004 0 0 0 516.3892461195618 408.2948126650518 Z" fill="#EAB308"/><path d="M761.0737392229547 561.2663709882432 A327.68 327.68 0 0 1 591.9863709882434 730.3537392229547 L484.703079198229 484.7919865861512 A59.705600000000004 59.705600000000004 0 0 0 515.5119865861512 453.98307919822895 Z" fill="#22C55E"/><path d="M580.3628246917513 735.1683697418332 A327.68 327.68 0 0 1 341.23717530824877 735.1683697418332 L439.0148126650518 485.66924611956176 A59.705600000000004 59.705600000000004 0 0 0 482.5851873349482 485.66924611956176 Z" fill="#06B6D4"/><path d="M329.61362901175676 730.3537392229547 A327.68 327.68 0 0 1 160.52626077704537 561.2663709882434 L406.0880134138488 453.98307919822895 A59.705600000000004 59.705600000000004 0 0 0 436.89692080177105 484.7919865861512 Z" fill="#3B82F6"/><path d="M155.71163025816674 549.6428246917512 A327.68 327.68 0 0 1 155.71163025816668 310.51717530824885 L405.21075388043823 408.29481266505184 A59.705600000000004 59.705600000000004 0 0 0 405.21075388043823 451.8651873349482 Z" fill="#8B5CF6"/><path d="M160.5262607770453 298.8936290117566 A327.68 327.68 0 0 1 329.6136290117566 129.80626077704534 L436.89692080177105 375.36801341384876 A59.705600000000004 59.705600000000004 0 0 0 406.0880134138488 406.176920801771 Z" fill="#EC4899"/><circle cx="460.8" cy="430.08" r="55.705600000000004" fill="white"/><path d="M 362.496 772.76 Q 559.104 822.76 818.48 479.23199999999997 " fill="none" stroke="url(#r1)" stroke-width="18" stroke-linecap="round"/><path d="M 313.344 792.76 Q 509.952 842.76 803.48 561.152 " fill="none" stroke="url(#r1)" stroke-width="10" stroke-linecap="round" opacity="0.45"/></svg>