<svg xmlns="http://www.w3.org/2000/svg" width="1024" height="1024" viewBox="0 0 1024 1024"><rect width="1024" height="1024" fill="white"/><defs><radialGradient id="sg0" cx="450.56" cy="430.08" r="307.2" gradientUnits="userSpaceOnUse"><stop offset="15%" stop-color="#DC2626"/><stop offset="95%" stop-color="#F87171"/></radialGradient><radialGradient id="sg1" cx="450.56" cy="430.08" r="307.2" gradientUnits="userSpaceOnUse"><stop offset="15%" stop-color="#EA580C"/><stop offset="95%" stop-color="#FB923C"/></radialGradient><radialGradient id="sg2" cx="450.56" cy="430.08" r="307.2" gradientUnits="userSpaceOnUse"><stop offset="15%" stop-color="#CA8A04"/><stop offset="95%" stop-color="#FACC15"/></radialGradient><radialGradient id="sg3" cx="450.56" cy="430.08" r="307.2" gradientUnits="userSpaceOnUse"><stop offset="15%" stop-color="#16A34A"/><stop offset="95%" stop-color="#4ADE80"/></radialGradient><radialGradient id="sg4" cx="450.56" cy="430.08" r="307.2" gradientUnits="userSpaceOnUse"><stop offset="15%" stop-color="#0891B2"/><stop offset="95%" stop-color="#22D3EE"/></radialGradient><radialGradient id="sg5" cx="450.56" cy="430.08" r="307.2" gradientUnits="userSpaceOnUse"><stop offset="15%" stop-color="#2563EB"/><stop offset="95%" stop-color="#60A5FA"/></radialGradient><radialGradient id="sg6" cx="450.56" cy="430.08" r="307.2" gradientUnits="userSpaceOnUse"><stop offset="15%" stop-color="#7C3AED"/><stop offset="95%" stop-color="#A78BFA"/></radialGradient><radialGradient id="sg7" cx="450.56" cy="430.08" r="307.2" gradientUnits="userSpaceOnUse"><stop offset="15%" stop-color="#DB2777"/><stop offset="95%" stop-color="#F472B6"/></radialGradient><linearGradient id="rg" x1="0" y1="0.8" x2="1" y2="0.1"><stop offset="0%" stop-color="#1E3A5F"/><stop offset="25%" stop-color="#0891B2"/><stop offset="55%" stop-color="#34D399"/><stop offset="85%" stop-color="#FBBF24"/></linearGradient><radialGradient id="glow" cx="450.56" cy="430.08" r="353.28" gradientUnits="userSpaceOnUse"><stop offset="60%" stop-color="rgba(0,0,0,0.04)"/><stop offset="100%" stop-color="rgba(0,0,0,0)"/></radialGradient></defs><circle cx="450.56" cy="430.08" r="337.92" fill="url(#glow)"/><path d="M338.9692219987012 143.86445488571928 A307.2 307.2 0 0 1 562.1507780012989 143.8644548857194 L470.98343718211277 377.6965924202301 A56.224000000000004 56.224000000000004 0 0 0 430.1365628178873 377.69659242023005 Z" fill="url(#sg0)"/><path d="M574.038356988711 148.78845132608683 A307.2 307.2 0 0 1 731.8515486739132 306.601643011289 L502.04221364792346 407.4808882052953 A56.224000000000004 56.224000000000004 0 0 0 473.1591117947047 378.5977863520765 Z" fill="url(#sg1)"/><path d="M736.7755451142807 318.48922199870105 A307.2 307.2 0 0 1 736.7755451142807 541.6707780012989 L502.9434075797699 450.5034371821127 A56.224000000000004 56.224000000000004 0 0 0 502.9434075797699 409.6565628178873 Z" fill="url(#sg2)"/><path d="M731.8515486739132 553.5583569887109 A307.2 307.2 0 0 1 574.0383569887109 711.3715486739131 L473.1591117947047 481.5622136479235 A56.224000000000004 56.224000000000004 0 0 0 502.04221364792346 452.6791117947047 Z" fill="url(#sg3)"/><path d="M562.150778001299 716.2955451142806 A307.2 307.2 0 0 1 338.969221998701 716.2955451142806 L430.13656281788724 482.46340757976986 A56.224000000000004 56.224000000000004 0 0 0 470.98343718211277 482.46340757976986 Z" fill="url(#sg4)"/><path d="M327.0816430112891 711.3715486739131 A307.2 307.2 0 0 1 169.2684513260868 553.5583569887109 L399.0777863520765 452.6791117947047 A56.224000000000004 56.224000000000004 0 0 0 427.9608882052953 481.5622136479235 Z" fill="url(#sg5)"/><path d="M164.34445488571941 541.6707780012989 A307.2 307.2 0 0 1 164.34445488571936 318.48922199870105 L398.1765924202301 409.6565628178873 A56.224000000000004 56.224000000000004 0 0 0 398.1765924202301 450.50343718211275 Z" fill="url(#sg6)"/><path d="M169.2684513260868 306.6016430112892 A307.2 307.2 0 0 1 327.081643011289 148.78845132608683 L427.9608882052953 378.5977863520765 A56.224000000000004 56.224000000000004 0 0 0 399.0777863520765 407.4808882052953 Z" fill="url(#sg7)"/><circle cx="450.56" cy="430.08" r="52.224000000000004" fill="white"/><path d="M 266.24 797.28 C 481.28 817.28, 696.3199999999999 737.28, 834.56 414.71999999999997" fill="none" stroke="url(#rg)" stroke-width="16" stroke-linecap="round"/><path d="M 220.16000000000003 812.28 C 435.2 837.28, 650.24 762.28, 803.8399999999999 506.88" fill="none" stroke="url(#rg)" stroke-width="9" stroke-linecap="round" opacity="0.4"/><rect x="805.056" y="591.04" width="16" height="16" rx="3" fill="#FBBF24" opacity="0.7"/><circle cx="849.9200000000001" cy="476.15999999999997" r="6" fill="#34D399" opacity="0.65"/><circle cx="863.9200000000001" cy="478.15999999999997" r="4" fill="#0891B2" opacity="0.55"/><rect x="767.12" y="378" width="12" height="12" rx="2" fill="#A78BFA" opacity="0.6" transform="rotate(45 773.12 384)"/><circle cx="865.28" cy="405.50399999999996" r="3" fill="#F472B6" opacity="0.5"/><circle cx="834.56" cy="691.2" r="4" fill="#60A5FA" opacity="0.4"/><circle cx="742.4" cy="752.64" r="3" fill="#22D3EE" opacity="0.35"/><circle cx="343.04" cy="798.72" r="3" fill="#FB923C" opacity="0.3"/></svg>