<svg xmlns="http://www.w3.org/2000/svg" width="1024" height="1024" viewBox="0 0 1024 1024"><rect width="1024" height="1024" fill="white"/><defs><radialGradient id="s0" cx="430.08" cy="409.6" r="296.96" gradientUnits="userSpaceOnUse"><stop offset="10%" stop-color="#DC2626"/><stop offset="92%" stop-color="#F87171"/></radialGradient><radialGradient id="s1" cx="430.08" cy="409.6" r="296.96" gradientUnits="userSpaceOnUse"><stop offset="10%" stop-color="#EA580C"/><stop offset="92%" stop-color="#FB923C"/></radialGradient><radialGradient id="s2" cx="430.08" cy="409.6" r="296.96" gradientUnits="userSpaceOnUse"><stop offset="10%" stop-color="#CA8A04"/><stop offset="92%" stop-color="#FACC15"/></radialGradient><radialGradient id="s3" cx="430.08" cy="409.6" r="296.96" gradientUnits="userSpaceOnUse"><stop offset="10%" stop-color="#16A34A"/><stop offset="92%" stop-color="#4ADE80"/></radialGradient><radialGradient id="s4" cx="430.08" cy="409.6" r="296.96" gradientUnits="userSpaceOnUse"><stop offset="10%" stop-color="#0891B2"/><stop offset="92%" stop-color="#22D3EE"/></radialGradient><radialGradient id="s5" cx="430.08" cy="409.6" r="296.96" gradientUnits="userSpaceOnUse"><stop offset="10%" stop-color="#2563EB"/><stop offset="92%" stop-color="#60A5FA"/></radialGradient><radialGradient id="s6" cx="430.08" cy="409.6" r="296.96" gradientUnits="userSpaceOnUse"><stop offset="10%" stop-color="#7C3AED"/><stop offset="92%" stop-color="#A78BFA"/></radialGradient><radialGradient id="s7" cx="430.08" cy="409.6" r="296.96" gradientUnits="userSpaceOnUse"><stop offset="10%" stop-color="#DB2777"/><stop offset="92%" stop-color="#F472B6"/></radialGradient><linearGradient id="rg" x1="0.2" y1="0.9" x2="0.9" y2="0.2"><stop offset="0%" stop-color="#1E3A5F"/><stop offset="25%" stop-color="#0891B2"/><stop offset="55%" stop-color="#34D399"/><stop offset="85%" stop-color="#FBBF24"/></linearGradient></defs><path d="M322.20891459874446 132.92497305619537 A296.96 296.96 0 0 1 537.9510854012556 132.92497305619543 L449.8710894401054 358.838480509211 A54.483200000000004 54.483200000000004 0 0 0 410.28891055989465 358.838480509211 Z" fill="url(#s0)"/><path d="M549.4424117557539 137.68483628188397 A296.96 296.96 0 0 1 701.995163718116 290.2375882442461 L479.968228205438 387.700598894898 A54.483200000000004 54.483200000000004 0 0 0 451.979401105102 359.711771794562 Z" fill="url(#s1)"/><path d="M706.7550269438045 301.7289145987444 A296.96 296.96 0 0 1 706.7550269438045 517.4710854012557 L480.841519490789 429.3910894401054 A54.483200000000004 54.483200000000004 0 0 0 480.841519490789 389.8089105598946 Z" fill="url(#s2)"/><path d="M701.995163718116 528.9624117557539 A296.96 296.96 0 0 1 549.4424117557538 681.5151637181161 L451.979401105102 459.488228205438 A54.483200000000004 54.483200000000004 0 0 0 479.968228205438 431.49940110510204 Z" fill="url(#s3)"/><path d="M537.9510854012557 686.2750269438046 A296.96 296.96 0 0 1 322.2089145987443 686.2750269438046 L410.2889105598946 460.361519490789 A54.483200000000004 54.483200000000004 0 0 0 449.8710894401054 460.361519490789 Z" fill="url(#s4)"/><path d="M310.71758824424614 681.5151637181161 A296.96 296.96 0 0 1 158.16483628188388 528.9624117557539 L380.191771794562 431.49940110510204 A54.483200000000004 54.483200000000004 0 0 0 408.18059889489797 459.488228205438 Z" fill="url(#s5)"/><path d="M153.4049730561954 517.4710854012557 A296.96 296.96 0 0 1 153.4049730561954 301.72891459874444 L379.318480509211 389.8089105598947 A54.483200000000004 54.483200000000004 0 0 0 379.318480509211 429.3910894401054 Z" fill="url(#s6)"/><path d="M158.16483628188388 290.23758824424624 A296.96 296.96 0 0 1 310.71758824424603 137.68483628188397 L408.18059889489797 359.711771794562 A54.483200000000004 54.483200000000004 0 0 0 380.191771794562 387.70059889489806 Z" fill="url(#s7)"/><circle cx="430.08" cy="409.6" r="50.483200000000004" fill="white"/><path d="M 281.6 754.56 C 489.472 779.56, 697.344 714.56, 771.584 409.6" fill="none" stroke="url(#rg)" stroke-width="14" stroke-linecap="round"/><path d="M 237.05599999999998 769.56 C 444.928 794.56, 652.8 734.56, 741.8879999999999 468.992" fill="none" stroke="url(#rg)" stroke-width="8" stroke-linecap="round" opacity="0.4"/><text x="385.536" y="772.56" font-family="Plus Jakarta Sans" font-weight="700" font-size="38" fill="#CA8A04" opacity="0.85" transform="rotate(-8 385.536 772.56)">Joy</text><text x="593.408" y="729.56" font-family="Epilogue" font-weight="700" font-size="34" fill="#7C3AED" opacity="0.75" transform="rotate(-32 593.408 729.56)">Fear</text><text x="712.192" y="483.84000000000003" font-family="Noto Serif" font-weight="600" font-size="32" fill="#DB2777" opacity="0.7" transform="rotate(-55 712.192 483.84000000000003)">Love</text></svg>