<svg xmlns="http://www.w3.org/2000/svg" width="1024" height="1024" viewBox="0 0 1024 1024"><rect width="1024" height="1024" fill="white" /><path d="M 368.7553740593382 150.2053738111636 A 389.12 389.12 0 0 1 655.2446259406619 150.2053738111636 L 536.4316903125767 450.29259418456854 A 66.368 66.368 0 0 1 487.5683096874233 450.29259418456854 Z" fill="#EF4444" /><path d="M 666.5381872038059 154.88332005384927 A 389.12 389.12 0 0 1 869.1166799461507 357.4618127961942 L 572.9095389973944 485.64208879435085 A 66.368 66.368 0 0 1 538.3579112056491 451.09046100260554 Z" fill="#F97316" /><path d="M 873.7946261888364 368.7553740593381 A 389.12 389.12 0 0 1 873.7946261888364 655.2446259406619 L 573.7074058154315 536.4316903125767 A 66.368 66.368 0 0 1 573.7074058154315 487.5683096874233 Z" fill="#FACC15" /><path d="M 869.1166799461507 666.5381872038058 A 389.12 389.12 0 0 1 666.5381872038059 869.1166799461507 L 538.3579112056491 572.9095389973944 A 66.368 66.368 0 0 1 572.9095389973944 538.3579112056491 Z" fill="#4ADE80" /><path d="M 655.2446259406619 873.7946261888364 A 389.12 389.12 0 0 1 368.7553740593382 873.7946261888364 L 487.5683096874233 573.7074058154315 A 66.368 66.368 0 0 1 536.4316903125767 573.7074058154315 Z" fill="#06B6D4" /><path d="M 357.46181279619424 869.1166799461507 A 389.12 389.12 0 0 1 154.88332005384933 666.538187203806 L 451.09046100260554 538.3579112056492 A 66.368 66.368 0 0 1 485.6420887943509 572.9095389973945 Z" fill="#3B82F6" /><path d="M 150.2053738111636 655.2446259406618 A 389.12 389.12 0 0 1 150.20537381116367 368.755374059338 L 450.29259418456854 487.56830968742327 A 66.368 66.368 0 0 1 450.29259418456854 536.4316903125767 Z" fill="#8B5CF6" /><path d="M 154.88332005384922 357.46181279619424 A 389.12 389.12 0 0 1 357.4618127961943 154.88332005384922 L 485.6420887943509 451.09046100260554 A 66.368 66.368 0 0 1 451.09046100260554 485.6420887943509 Z" fill="#EC4899" /><circle cx="512" cy="512" r="58.367999999999995" fill="white" /><defs>  <linearGradient id="ribbon" x1="0.3" y1="1" x2="1" y2="0">    <stop offset="0%" stop-color="#1e3a5f" />    <stop offset="35%" stop-color="#06B6D4" />    <stop offset="70%" stop-color="#34D399" />    <stop offset="100%" stop-color="#FACC15" />  </linearGradient></defs><path d="M 453.632 842.752 C 628.736 881.664, 784.384 706.56, 881.664 570.3679999999999 " fill="none" stroke="url(#ribbon)" stroke-width="14" stroke-linecap="round" /><path d="M 414.72 881.664 C 570.3679999999999 920.576, 726.0160000000001 764.928, 842.752 648.192 " fill="none" stroke="url(#ribbon)" stroke-width="8" stroke-linecap="round" opacity="0.6" /></svg>