<svg xmlns="http://www.w3.org/2000/svg" width="1024" height="1024" viewBox="0 0 1024 1024"><rect width="1024" height="1024" fill="white"/><defs><radialGradient id="g0" cx="450.56" cy="409.6" r="307.2" gradientUnits="userSpaceOnUse"><stop offset="10%" stop-color="#DC2626"/><stop offset="95%" stop-color="#F87171"/></radialGradient><radialGradient id="g1" cx="450.56" cy="409.6" r="307.2" gradientUnits="userSpaceOnUse"><stop offset="10%" stop-color="#EA580C"/><stop offset="95%" stop-color="#FB923C"/></radialGradient><radialGradient id="g2" cx="450.56" cy="409.6" r="307.2" gradientUnits="userSpaceOnUse"><stop offset="10%" stop-color="#CA8A04"/><stop offset="95%" stop-color="#FACC15"/></radialGradient><radialGradient id="g3" cx="450.56" cy="409.6" r="307.2" gradientUnits="userSpaceOnUse"><stop offset="10%" stop-color="#16A34A"/><stop offset="95%" stop-color="#4ADE80"/></radialGradient><radialGradient id="g4" cx="450.56" cy="409.6" r="307.2" gradientUnits="userSpaceOnUse"><stop offset="10%" stop-color="#0891B2"/><stop offset="95%" stop-color="#22D3EE"/></radialGradient><radialGradient id="g5" cx="450.56" cy="409.6" r="307.2" gradientUnits="userSpaceOnUse"><stop offset="10%" stop-color="#2563EB"/><stop offset="95%" stop-color="#60A5FA"/></radialGradient><radialGradient id="g6" cx="450.56" cy="409.6" r="307.2" gradientUnits="userSpaceOnUse"><stop offset="10%" stop-color="#7C3AED"/><stop offset="95%" stop-color="#A78BFA"/></radialGradient><radialGradient id="g7" cx="450.56" cy="409.6" r="307.2" gradientUnits="userSpaceOnUse"><stop offset="10%" stop-color="#DB2777"/><stop offset="95%" stop-color="#F472B6"/></radialGradient><linearGradient id="rb" x1="0.15" y1="0.85" x2="0.85" y2="0.25"><stop offset="0%" stop-color="#1E3A5F" stop-opacity="0.9"/><stop offset="30%" stop-color="#0891B2" stop-opacity="0.8"/><stop offset="60%" stop-color="#34D399" stop-opacity="0.7"/><stop offset="100%" stop-color="#FBBF24" stop-opacity="0.6"/></linearGradient><linearGradient id="rb2" x1="0.8" y1="0.3" x2="0.2" y2="0.8"><stop offset="0%" stop-color="#FBBF24" stop-opacity="0.5"/><stop offset="40%" stop-color="#F472B6" stop-opacity="0.4"/><stop offset="100%" stop-color="#A78BFA" stop-opacity="0.3"/></linearGradient><path id="textArc1" d="M 343.04 753.664 C 542.72 808.96, 711.6800000000001 640, 819.2 424.96000000000004"/><path id="textArc2" d="M 803.8399999999999 455.68 C 727.04 609.28, 573.44 701.44, 419.84000000000003 670.72"/></defs><path d="M338.9692219987012 123.38445488571932 A307.2 307.2 0 0 1 562.1507780012989 123.38445488571944 L470.98343718211277 357.21659242023014 A56.224000000000004 56.224000000000004 0 0 0 430.1365628178873 357.2165924202301 Z" fill="url(#g0)"/><path d="M574.038356988711 128.30845132608687 A307.2 307.2 0 0 1 731.8515486739132 286.12164301128905 L502.04221364792346 387.0008882052953 A56.224000000000004 56.224000000000004 0 0 0 473.1591117947047 358.11778635207656 Z" fill="url(#g1)"/><path d="M736.7755451142807 298.0092219987011 A307.2 307.2 0 0 1 736.7755451142807 521.1907780012989 L502.9434075797699 430.02343718211273 A56.224000000000004 56.224000000000004 0 0 0 502.9434075797699 389.1765628178873 Z" fill="url(#g2)"/><path d="M731.8515486739132 533.078356988711 A307.2 307.2 0 0 1 574.0383569887109 690.8915486739131 L473.1591117947047 461.0822136479235 A56.224000000000004 56.224000000000004 0 0 0 502.04221364792346 432.1991117947047 Z" fill="url(#g3)"/><path d="M562.150778001299 695.8155451142807 A307.2 307.2 0 0 1 338.969221998701 695.8155451142807 L430.13656281788724 461.9834075797699 A56.224000000000004 56.224000000000004 0 0 0 470.98343718211277 461.9834075797699 Z" fill="url(#g4)"/><path d="M327.0816430112891 690.8915486739131 A307.2 307.2 0 0 1 169.2684513260868 533.0783569887109 L399.0777863520765 432.1991117947047 A56.224000000000004 56.224000000000004 0 0 0 427.9608882052953 461.0822136479235 Z" fill="url(#g5)"/><path d="M164.34445488571941 521.190778001299 A307.2 307.2 0 0 1 164.34445488571936 298.00922199870115 L398.1765924202301 389.1765628178873 A56.224000000000004 56.224000000000004 0 0 0 398.1765924202301 430.0234371821128 Z" fill="url(#g6)"/><path d="M169.2684513260868 286.1216430112892 A307.2 307.2 0 0 1 327.081643011289 128.30845132608687 L427.9608882052953 358.11778635207656 A56.224000000000004 56.224000000000004 0 0 0 399.0777863520765 387.0008882052953 Z" fill="url(#g7)"/><circle cx="450.56" cy="409.6" r="52.224000000000004" fill="white"/><path d="M 496.64 670.72 C 619.52 747.52, 727.04 609.28, 803.8399999999999 424.96000000000004" fill="none" stroke="url(#rb)" stroke-width="14" stroke-linecap="round"/><path d="M 794.624 440.32000000000005 C 711.6800000000001 578.5600000000001, 558.08 670.72, 404.48 649.216" fill="none" stroke="url(#rb2)" stroke-width="10" stroke-linecap="round"/><text font-family="Cormorant Garamond" font-weight="600" font-size="36" fill="#4a626d" opacity="0.85"><textPath href="#textArc1" startOffset="15%">Yearning</textPath></text><text font-family="Plus Jakarta Sans" font-weight="700" font-size="32" fill="#CA8A04" opacity="0.75"><textPath href="#textArc1" startOffset="58%">Radiance</textPath></text><text font-family="Epilogue" font-weight="700" font-size="30" letter-spacing="3" fill="#7C3AED" opacity="0.55"><textPath href="#textArc2" startOffset="25%">Dread</textPath></text></svg>