<svg xmlns="http://www.w3.org/2000/svg" width="1024" height="1024" viewBox="0 0 1024 1024"><rect width="1024" height="1024" fill="white"/><defs><radialGradient id="g0" cx="409.6" cy="389.12" r="286.72" gradientUnits="userSpaceOnUse"><stop offset="10%" stop-color="#DC2626"/><stop offset="95%" stop-color="#F87171"/></radialGradient><radialGradient id="g1" cx="409.6" cy="389.12" r="286.72" gradientUnits="userSpaceOnUse"><stop offset="10%" stop-color="#EA580C"/><stop offset="95%" stop-color="#FB923C"/></radialGradient><radialGradient id="g2" cx="409.6" cy="389.12" r="286.72" gradientUnits="userSpaceOnUse"><stop offset="10%" stop-color="#CA8A04"/><stop offset="95%" stop-color="#FACC15"/></radialGradient><radialGradient id="g3" cx="409.6" cy="389.12" r="286.72" gradientUnits="userSpaceOnUse"><stop offset="10%" stop-color="#16A34A"/><stop offset="95%" stop-color="#4ADE80"/></radialGradient><radialGradient id="g4" cx="409.6" cy="389.12" r="286.72" gradientUnits="userSpaceOnUse"><stop offset="10%" stop-color="#0891B2"/><stop offset="95%" stop-color="#22D3EE"/></radialGradient><radialGradient id="g5" cx="409.6" cy="389.12" r="286.72" gradientUnits="userSpaceOnUse"><stop offset="10%" stop-color="#2563EB"/><stop offset="95%" stop-color="#60A5FA"/></radialGradient><radialGradient id="g6" cx="409.6" cy="389.12" r="286.72" gradientUnits="userSpaceOnUse"><stop offset="10%" stop-color="#7C3AED"/><stop offset="95%" stop-color="#A78BFA"/></radialGradient><radialGradient id="g7" cx="409.6" cy="389.12" r="286.72" gradientUnits="userSpaceOnUse"><stop offset="10%" stop-color="#DB2777"/><stop offset="95%" stop-color="#F472B6"/></radialGradient><linearGradient id="rb" x1="0.1" y1="0.9" x2="0.9" y2="0.2"><stop offset="0%" stop-color="#1E3A5F"/><stop offset="30%" stop-color="#0891B2"/><stop offset="65%" stop-color="#34D399"/><stop offset="100%" stop-color="#FBBF24"/></linearGradient><linearGradient id="rb2" x1="0.9" y1="0.2" x2="0.1" y2="0.8"><stop offset="0%" stop-color="#FBBF24" stop-opacity="0.7"/><stop offset="45%" stop-color="#F472B6" stop-opacity="0.5"/><stop offset="100%" stop-color="#A78BFA" stop-opacity="0.35"/></linearGradient></defs><path d="M305.91500326606257 121.8041197154883 A286.72 286.72 0 0 1 513.2849967339375 121.80411971548835 L429.7097976924372 337.27384634392587 A55.6096 55.6096 0 0 0 389.4902023075629 337.27384634392587 Z" fill="url(#g0)"/><path d="M525.3045073701574 126.7827640340982 A286.72 286.72 0 0 1 671.9372359659019 273.41549262984273 L460.48054114526167 366.67900748796217 A55.6096 55.6096 0 0 0 432.04099251203786 338.23945885473836 Z" fill="url(#g1)"/><path d="M676.9158802845117 285.4350032660625 A286.72 286.72 0 0 1 676.9158802845117 492.8049967339375 L461.44615365607416 409.2297976924371 A55.6096 55.6096 0 0 0 461.44615365607416 369.0102023075629 Z" fill="url(#g2)"/><path d="M671.9372359659019 504.8245073701573 A286.72 286.72 0 0 1 525.3045073701574 651.4572359659018 L432.0409925120379 440.0005411452616 A55.6096 55.6096 0 0 0 460.48054114526167 411.56099251203784 Z" fill="url(#g3)"/><path d="M513.2849967339375 656.4358802845118 A286.72 286.72 0 0 1 305.91500326606257 656.4358802845118 L389.4902023075629 440.96615365607414 A55.6096 55.6096 0 0 0 429.7097976924371 440.96615365607414 Z" fill="url(#g4)"/><path d="M293.8954926298427 651.4572359659018 A286.72 286.72 0 0 1 147.26276403409827 504.8245073701574 L358.71945885473843 411.5609925120379 A55.6096 55.6096 0 0 0 387.1590074879621 440.0005411452616 Z" fill="url(#g5)"/><path d="M142.28411971548832 492.80499673393746 A286.72 286.72 0 0 1 142.28411971548837 285.4350032660625 L357.7538463439259 369.0102023075629 A55.6096 55.6096 0 0 0 357.7538463439259 409.2297976924371 Z" fill="url(#g6)"/><path d="M147.2627640340982 273.4154926298428 A286.72 286.72 0 0 1 293.8954926298427 126.78276403409825 L387.1590074879621 338.23945885473836 A55.6096 55.6096 0 0 0 358.7194588547384 366.67900748796217 Z" fill="url(#g7)"/><circle cx="409.6" cy="389.12" r="51.6096" fill="white"/><path d="M 552.96 589.8240000000001 C 667.6480000000001 675.84, 796.672 561.152, 854.0160000000001 403.456 " fill="none" stroke="url(#rb)" stroke-width="12" stroke-linecap="round"/><path d="M 839.6800000000001 417.79200000000003 C 782.336 546.816, 624.6400000000001 647.1680000000001, 452.608 641.4336000000001 " fill="none" stroke="url(#rb2)" stroke-width="8" stroke-linecap="round"/><text x="673.3824000000001" y="641.4336000000001" font-family="Cormorant Garamond" font-weight="600" font-size="48" fill="#4a626d" opacity="0.85" font-style="italic" transform="rotate(-42 673.3824000000001 641.4336000000001)">Yearning</text><text x="845.4144000000001" y="498.0736" font-family="Plus Jakarta Sans" font-weight="700" font-size="40" fill="#b8960a" opacity="0.8" transform="rotate(-78 845.4144000000001 498.0736)">Radiance</text><text x="595.9680000000001" y="612.7616" font-family="Epilogue" font-weight="700" font-size="36" letter-spacing="4" fill="#7C3AED" opacity="0.45" transform="rotate(22 595.9680000000001 612.7616)">Dread</text></svg>