<svg xmlns="http://www.w3.org/2000/svg" width="1024" height="1024" viewBox="0 0 1024 1024"><rect width="1024" height="1024" fill="white"/><defs><radialGradient id="g0" cx="389.12" cy="358.4" r="276.48" gradientUnits="userSpaceOnUse"><stop offset="10%" stop-color="#DC2626"/><stop offset="95%" stop-color="#F87171"/></radialGradient><radialGradient id="g1" cx="389.12" cy="358.4" r="276.48" gradientUnits="userSpaceOnUse"><stop offset="10%" stop-color="#EA580C"/><stop offset="95%" stop-color="#FB923C"/></radialGradient><radialGradient id="g2" cx="389.12" cy="358.4" r="276.48" gradientUnits="userSpaceOnUse"><stop offset="10%" stop-color="#CA8A04"/><stop offset="95%" stop-color="#FACC15"/></radialGradient><radialGradient id="g3" cx="389.12" cy="358.4" r="276.48" gradientUnits="userSpaceOnUse"><stop offset="10%" stop-color="#16A34A"/><stop offset="95%" stop-color="#4ADE80"/></radialGradient><radialGradient id="g4" cx="389.12" cy="358.4" r="276.48" gradientUnits="userSpaceOnUse"><stop offset="10%" stop-color="#0891B2"/><stop offset="95%" stop-color="#22D3EE"/></radialGradient><radialGradient id="g5" cx="389.12" cy="358.4" r="276.48" gradientUnits="userSpaceOnUse"><stop offset="10%" stop-color="#2563EB"/><stop offset="95%" stop-color="#60A5FA"/></radialGradient><radialGradient id="g6" cx="389.12" cy="358.4" r="276.48" gradientUnits="userSpaceOnUse"><stop offset="10%" stop-color="#7C3AED"/><stop offset="95%" stop-color="#A78BFA"/></radialGradient><radialGradient id="g7" cx="389.12" cy="358.4" r="276.48" gradientUnits="userSpaceOnUse"><stop offset="10%" stop-color="#DB2777"/><stop offset="95%" stop-color="#F472B6"/></radialGradient><linearGradient id="rb" x1="0.1" y1="0.9" x2="0.9" y2="0.2"><stop offset="0%" stop-color="#1E3A5F"/><stop offset="30%" stop-color="#0891B2"/><stop offset="65%" stop-color="#34D399"/><stop offset="100%" stop-color="#FBBF24"/></linearGradient><linearGradient id="rb2" x1="0.9" y1="0.2" x2="0.1" y2="0.8"><stop offset="0%" stop-color="#FBBF24"/><stop offset="45%" stop-color="#F472B6"/><stop offset="100%" stop-color="#A78BFA"/></linearGradient></defs><path d="M289.1380388637032 100.63111543993512 A276.48 276.48 0 0 1 489.10196113629695 100.63111543993517 L408.56325128486185 308.27230557432625 A53.766400000000004 53.766400000000004 0 0 0 369.6767487151382 308.27230557432625 Z" fill="url(#g0)"/><path d="M500.6922035355088 105.43195103288039 A276.48 276.48 0 0 1 642.0880489671196 246.8277964644912 L438.31408748548085 336.70282217819886 A53.766400000000004 53.766400000000004 0 0 0 410.8171778218011 309.2059125145191 Z" fill="url(#g1)"/><path d="M646.8888845600648 258.4180388637031 A276.48 276.48 0 0 1 646.8888845600648 458.38196113629687 L439.2476944256737 377.84325128486176 A53.766400000000004 53.766400000000004 0 0 0 439.2476944256737 338.9567487151382 Z" fill="url(#g2)"/><path d="M642.0880489671196 469.97220353550875 A276.48 276.48 0 0 1 500.6922035355089 611.3680489671195 L410.8171778218012 407.59408748548077 A53.766400000000004 53.766400000000004 0 0 0 438.31408748548085 380.0971778218011 Z" fill="url(#g3)"/><path d="M489.10196113629684 616.1688845600648 A276.48 276.48 0 0 1 289.1380388637032 616.1688845600648 L369.6767487151382 408.5276944256737 A53.766400000000004 53.766400000000004 0 0 0 408.5632512848618 408.5276944256737 Z" fill="url(#g4)"/><path d="M277.5477964644911 611.3680489671195 A276.48 276.48 0 0 1 136.15195103288048 469.9722035355089 L339.9259125145192 380.09717782180115 A53.766400000000004 53.766400000000004 0 0 0 367.4228221781988 407.59408748548077 Z" fill="url(#g5)"/><path d="M131.35111543993514 458.3819611362968 A276.48 276.48 0 0 1 131.3511154399352 258.4180388637031 L338.9923055743263 338.9567487151382 A53.766400000000004 53.766400000000004 0 0 0 338.9923055743263 377.84325128486176 Z" fill="url(#g6)"/><path d="M136.15195103288042 246.82779646449123 A276.48 276.48 0 0 1 277.54779646449117 105.43195103288042 L367.4228221781989 309.2059125145191 A53.766400000000004 53.766400000000004 0 0 0 339.92591251451915 336.70282217819886 Z" fill="url(#g7)"/><circle cx="389.12" cy="358.4" r="49.766400000000004" fill="white"/><path d="M 513.5360000000001 565.76 C 624.128 648.704, 776.192 538.112, 845.312 399.87199999999996 " fill="none" stroke="url(#rb)" stroke-width="13" stroke-linecap="round"/><path d="M 831.488 413.69599999999997 C 762.368 551.9359999999999, 582.656 690.1759999999999, 402.944 676.352 " fill="none" stroke="url(#rb2)" stroke-width="9" stroke-linecap="round" opacity="0.65"/><text x="679.424" y="585.1136" font-family="Cormorant Garamond" font-weight="600" font-size="52" fill="#4a626d" opacity="0.9" transform="rotate(-38 679.424 585.1136)" font-style="italic">Yearning</text><text x="790.0160000000001" y="455.168" font-family="Plus Jakarta Sans" font-weight="700" font-size="44" fill="#CA8A04" opacity="0.8" transform="rotate(-65 790.0160000000001 455.168)">Radiance</text><text x="624.128" y="656.9984" font-family="Epilogue" font-weight="700" font-size="40" letter-spacing="5" fill="#7C3AED" opacity="0.5" transform="rotate(18 624.128 656.9984)">Dread</text></svg>