<svg xmlns="http://www.w3.org/2000/svg" width="1024" height="1024" viewBox="0 0 1024 1024"><rect width="1024" height="1024" fill="white"/><defs><linearGradient id="rg" x1="0" y1="0.8" x2="0.9" y2="0.1"><stop offset="0%" stop-color="#1E3A5F"/><stop offset="25%" stop-color="#0891B2"/><stop offset="55%" stop-color="#34D399"/><stop offset="85%" stop-color="#FBBF24"/></linearGradient></defs><path d="M347.74083703663155 135.93761870373442 A337.92 337.92 0 0 1 594.3391629633685 135.93761870373442 L493.4603648411231 393.34997191618476 A61.446400000000004 61.446400000000004 0 0 0 448.6196351588769 393.34997191618476 Z" fill="#EF4444"/><path d="M606.325945081626 140.902706426328 A337.92 337.92 0 0 1 780.697293573672 315.2740549183741 L527.3471908257732 425.959993205896 A61.446400000000004 61.446400000000004 0 0 0 495.640006794104 394.2528091742268 Z" fill="#F97316"/><path d="M785.6623812962656 327.26083703663153 A337.92 337.92 0 0 1 785.6623812962656 573.8591629633685 L528.2500280838153 472.9803648411231 A61.446400000000004 61.446400000000004 0 0 0 528.2500280838153 428.1396351588769 Z" fill="#EAB308"/><path d="M780.697293573672 585.8459450816259 A337.92 337.92 0 0 1 606.325945081626 760.217293573672 L495.640006794104 506.8671908257732 A61.446400000000004 61.446400000000004 0 0 0 527.3471908257732 475.160006794104 Z" fill="#22C55E"/><path d="M594.3391629633685 765.1823812962656 A337.92 337.92 0 0 1 347.74083703663155 765.1823812962656 L448.6196351588769 507.77002808381525 A61.446400000000004 61.446400000000004 0 0 0 493.4603648411231 507.77002808381525 Z" fill="#06B6D4"/><path d="M335.7540549183741 760.217293573672 A337.92 337.92 0 0 1 161.382706426328 585.845945081626 L414.7328091742268 475.160006794104 A61.446400000000004 61.446400000000004 0 0 0 446.43999320589603 506.8671908257732 Z" fill="#3B82F6"/><path d="M156.41761870373443 573.8591629633685 A337.92 337.92 0 0 1 156.41761870373443 327.26083703663164 L413.8299719161848 428.1396351588769 A61.446400000000004 61.446400000000004 0 0 0 413.8299719161848 472.9803648411231 Z" fill="#8B5CF6"/><path d="M161.382706426328 315.2740549183741 A337.92 337.92 0 0 1 335.754054918374 140.902706426328 L446.43999320589603 394.2528091742268 A61.446400000000004 61.446400000000004 0 0 0 414.7328091742268 425.959993205896 Z" fill="#EC4899"/><circle cx="471.04" cy="450.56" r="57.446400000000004" fill="white"/><path d="M 403.456 761.4464 C 555.52 788.48, 724.48 636.416, 825.856 433.664 C 714.3424 653.312, 545.3824 815.5136, 396.6976 781.7216000000001 Z" fill="url(#rg)" opacity="0.85"/><path d="M 352.76800000000003 805.376 C 504.832 849.3056, 673.792 714.1376, 781.9264000000001 518.144 C 667.0336 727.6544, 498.0736 862.8224, 346.00960000000003 822.272 Z" fill="url(#rg)" opacity="0.4"/></svg>