<svg xmlns="http://www.w3.org/2000/svg" width="1024" height="1024" viewBox="0 0 1024 1024"><rect width="1024" height="1024" fill="white"/><defs><linearGradient id="r1" x1="0" y1="0.8" x2="1" y2="0.1"><stop offset="0%" stop-color="#1E3A5F"/><stop offset="25%" stop-color="#0891B2"/><stop offset="55%" stop-color="#34D399"/><stop offset="85%" stop-color="#FBBF24"/></linearGradient></defs><path d="M359.4492219987012 154.1044548857193 A307.2 307.2 0 0 1 582.630778001299 154.1044548857194 L492.57934496212573 385.0744369690873 A59.296 59.296 0 0 0 449.5006550378743 385.0744369690873 Z" fill="#EF4444"/><path d="M594.518356988711 159.02845132608684 A307.2 307.2 0 0 1 752.3315486739132 316.841643011289 L525.3351291346627 416.4861046354082 A59.296 59.296 0 0 0 494.8738953645918 386.0248708653374 Z" fill="#F97316"/><path d="M757.2555451142807 328.72922199870106 A307.2 307.2 0 0 1 757.2555451142807 551.9107780012989 L526.2855630309127 461.8593449621257 A59.296 59.296 0 0 0 526.2855630309127 418.7806550378743 Z" fill="#EAB308"/><path d="M752.3315486739132 563.7983569887109 A307.2 307.2 0 0 1 594.5183569887109 721.6115486739131 L494.8738953645918 494.6151291346626 A59.296 59.296 0 0 0 525.3351291346627 464.1538953645918 Z" fill="#22C55E"/><path d="M582.6307780012991 726.5355451142806 A307.2 307.2 0 0 1 359.44922199870103 726.5355451142806 L449.5006550378743 495.5655630309127 A59.296 59.296 0 0 0 492.5793449621258 495.5655630309127 Z" fill="#06B6D4"/><path d="M347.5616430112891 721.6115486739131 A307.2 307.2 0 0 1 189.7484513260868 563.7983569887109 L416.7448708653374 464.1538953645918 A59.296 59.296 0 0 0 447.2061046354082 494.6151291346626 Z" fill="#3B82F6"/><path d="M184.82445488571943 551.9107780012989 A307.2 307.2 0 0 1 184.82445488571938 328.72922199870106 L415.7944369690873 418.7806550378743 A59.296 59.296 0 0 0 415.7944369690873 461.8593449621257 Z" fill="#8B5CF6"/><path d="M189.7484513260868 316.8416430112892 A307.2 307.2 0 0 1 347.561643011289 159.02845132608684 L447.2061046354082 386.0248708653374 A59.296 59.296 0 0 0 416.7448708653374 416.4861046354082 Z" fill="#EC4899"/><circle cx="471.04" cy="440.32" r="55.296" fill="white"/><path d="M 286.72 807.52 C 501.76 827.52, 716.8 747.52, 855.04 455.68 " fill="none" stroke="url(#r1)" stroke-width="18" stroke-linecap="round"/><path d="M 240.64000000000004 822.52 C 455.68 847.52, 670.72 772.52, 824.3199999999999 517.12 " fill="none" stroke="url(#r1)" stroke-width="10" stroke-linecap="round" opacity="0.4"/></svg>